<svg xmlns="http://www.w3.org/2000/svg" width="32" height="32" fill="none" viewBox="0 0 32 32">
  <path fill="#fff" d="M12 19.5a1.5 1.5 0 1 0 0-3 1.5 1.5 0 0 0 0 3Zm8 0a1.5 1.5 0 1 0 0-3 1.5 1.5 0 0 0 0 3Z"/>
  <path fill="#fff" fill-rule="evenodd" d="M15.993 10a20.86 20.86 0 0 0-6.394.954 1 1 0 0 1-.598-1.909 22.862 22.862 0 0 1 7-1.045 22.862 22.862 0 0 1 6.998 1.045 1 1 0 1 1-.598 1.909A20.86 20.86 0 0 0 16.008 10h-.015ZM8.346 21.701a1 1 0 0 1 1.253-.655c2.069.648 4.226.97 6.394.954h.014a20.862 20.862 0 0 0 6.394-.954 1 1 0 0 1 .598 1.909A22.86 22.86 0 0 1 16 24a22.86 22.86 0 0 1-6.999-1.046 1 1 0 0 1-.655-1.253Z" clip-rule="evenodd"/>
  <path fill="#fff" fill-rule="evenodd" d="M20.22 4.811c.43-.242.935-.318 1.418-.213 1.317.286 2.607.686 3.855 1.197a1.962 1.962 0 0 1 1.179 1.286l4.236 14.144a2.013 2.013 0 0 1-.596 2.088l-.006.004c-2.067 1.8-4.868 3.16-8.05 3.94a1.976 1.976 0 0 1-2.266-1.053l-1.508-2.991a1 1 0 0 1 1.786-.9l1.512 3 .002.002c2.937-.72 5.432-1.958 7.212-3.507l.656.755-.662-.75a.011.011 0 0 0 .004-.006V21.8L24.756 7.655l-.01-.005a21.048 21.048 0 0 0-3.533-1.097h-.002a.012.012 0 0 0-.014.006l-.985 2.98a1 1 0 0 1-1.899-.628l.99-2.996c.16-.468.486-.86.917-1.104Zm-9.422 1.742a.012.012 0 0 0-.01 0h-.001a21.05 21.05 0 0 0-3.543 1.102L3.008 21.8v.007c0 .002.002.004.003.005 1.78 1.547 4.272 2.783 7.208 3.503v-.003l1.513-3a1 1 0 0 1 1.786.9l-1.508 2.992a1.975 1.975 0 0 1-2.266 1.054c-3.182-.78-5.983-2.142-8.05-3.94l-.006-.005a2.013 2.013 0 0 1-.596-2.087L5.328 7.08a1.963 1.963 0 0 1 1.18-1.286 23.05 23.05 0 0 1 3.855-1.197 2.013 2.013 0 0 1 2.334 1.317l.003.009.987 2.987a1 1 0 1 1-1.899.628l-.985-2.98a.013.013 0 0 0-.005-.006Z" clip-rule="evenodd"/>
  <path fill="#fff" d="M12 19.5a1.5 1.5 0 1 0 0-3 1.5 1.5 0 0 0 0 3Zm8 0a1.5 1.5 0 1 0 0-3 1.5 1.5 0 0 0 0 3Z"/>
  <path fill="#fff" fill-rule="evenodd" d="M15.993 10a20.86 20.86 0 0 0-6.394.954 1 1 0 0 1-.598-1.909 22.862 22.862 0 0 1 7-1.045 22.862 22.862 0 0 1 6.998 1.045 1 1 0 1 1-.598 1.909A20.86 20.86 0 0 0 16.008 10h-.015ZM8.346 21.701a1 1 0 0 1 1.253-.655c2.069.648 4.226.97 6.394.954h.014a20.862 20.862 0 0 0 6.394-.954 1 1 0 0 1 .598 1.909A22.86 22.86 0 0 1 16 24a22.86 22.86 0 0 1-6.999-1.046 1 1 0 0 1-.655-1.253Z" clip-rule="evenodd"/>
  <path fill="#fff" fill-rule="evenodd" d="M20.22 4.811c.43-.242.935-.318 1.418-.213 1.317.286 2.607.686 3.855 1.197a1.962 1.962 0 0 1 1.179 1.286l4.236 14.144a2.013 2.013 0 0 1-.596 2.088l-.006.004c-2.067 1.8-4.868 3.16-8.05 3.94a1.976 1.976 0 0 1-2.266-1.053l-1.508-2.991a1 1 0 0 1 1.786-.9l1.512 3 .002.002c2.937-.72 5.432-1.958 7.212-3.507l.656.755-.662-.75a.011.011 0 0 0 .004-.006V21.8L24.756 7.655l-.01-.005a21.048 21.048 0 0 0-3.533-1.097h-.002a.012.012 0 0 0-.014.006l-.985 2.98a1 1 0 0 1-1.899-.628l.99-2.996c.16-.468.486-.86.917-1.104Zm-9.422 1.742a.012.012 0 0 0-.01 0h-.001a21.05 21.05 0 0 0-3.543 1.102L3.008 21.8v.007c0 .002.002.004.003.005 1.78 1.547 4.272 2.783 7.208 3.503v-.003l1.513-3a1 1 0 0 1 1.786.9l-1.508 2.992a1.975 1.975 0 0 1-2.266 1.054c-3.182-.78-5.983-2.142-8.05-3.94l-.006-.005a2.013 2.013 0 0 1-.596-2.087L5.328 7.08a1.963 1.963 0 0 1 1.18-1.286 23.05 23.05 0 0 1 3.855-1.197 2.013 2.013 0 0 1 2.334 1.317l.003.009.987 2.987a1 1 0 1 1-1.899.628l-.985-2.98a.013.013 0 0 0-.005-.006Z" clip-rule="evenodd"/>
</svg>
