<svg xmlns="http://www.w3.org/2000/svg" width="32" height="32" fill="none" viewBox="0 0 32 32">
  <path fill="#fff" fill-rule="evenodd" d="M5.327 4.26a1 1 0 0 1 1.413.067l20 22a1 1 0 1 1-1.48 1.346l-20-22a1 1 0 0 1 .067-1.413Z" clip-rule="evenodd"/>
  <path fill="#fff" fill-rule="evenodd" d="M13.377 11.627a1 1 0 0 1-.067 1.413A4 4 0 0 0 16 20h.004a3.95 3.95 0 0 0 2.683-1.038 1 1 0 0 1 1.35 1.475A5.95 5.95 0 0 1 15.999 22a6 6 0 0 1-4.033-10.44 1 1 0 0 1 1.412.067Z" clip-rule="evenodd"/>
  <path fill="#fff" fill-rule="evenodd" d="M10.143 8.125A1 1 0 0 1 9.7 9.468c-2.377 1.2-4.08 2.939-5.194 4.393A16.289 16.289 0 0 0 3.118 16c.118.22.287.52.51.874a16.92 16.92 0 0 0 2.33 2.92C8.072 21.91 11.332 24 16 24h.008a13.737 13.737 0 0 0 6.292-1.468 1 1 0 0 1 .9 1.787A15.737 15.737 0 0 1 15.996 26c-5.33 0-9.07-2.41-11.453-4.793a18.919 18.919 0 0 1-2.608-3.268 15.957 15.957 0 0 1-.789-1.404 6.774 6.774 0 0 1-.042-.09l-.012-.025-.003-.009-.002-.002v-.002L2 16l-.914-.405.001-.003.003-.005.007-.016a4.847 4.847 0 0 1 .11-.23c.077-.153.19-.368.34-.633.3-.527.752-1.253 1.372-2.063 1.236-1.613 3.157-3.587 5.88-4.962a1 1 0 0 1 1.344.442ZM2 16l-.914-.405a1.001 1.001 0 0 0 0 .812L2 16Zm11.247-9.774c.91-.152 1.831-.228 2.754-.226L16 7V6h.001c5.332 0 9.072 2.41 11.456 4.793a18.919 18.919 0 0 1 2.608 3.268 15.951 15.951 0 0 1 .789 1.404l.042.09.012.026.004.008v.003l.001.001L30 16l-.914-.406-.007.016-.035.074a9.354 9.354 0 0 1-.157.306l-.005.01a14.21 14.21 0 0 0-.51-.873 16.915 16.915 0 0 0-2.33-2.92C23.928 10.091 20.668 8 16 8h-.002c-.81-.002-1.62.065-2.42.199a1 1 0 0 1-.33-1.973ZM30 16l.914.406a1 1 0 0 0 0-.812L30 16Zm-1.118 0c-.143.268-.361.651-.66 1.107a16.73 16.73 0 0 1-2.814 3.285 1 1 0 0 0 1.334 1.49 18.734 18.734 0 0 0 3.154-3.68c.339-.518.59-.958.757-1.272a11.386 11.386 0 0 0 .24-.478l.014-.03.004-.01.002-.003v-.002L30 16c-.914.406-.914.407-.913.407l-.006-.013-.03-.061a8.684 8.684 0 0 0-.17-.333Z" clip-rule="evenodd"/>
  <path fill="#fff" fill-rule="evenodd" d="M15.955 10.902a1 1 0 0 1 1.169-.796 5.987 5.987 0 0 1 4.847 5.327 1 1 0 0 1-1.992.185 3.987 3.987 0 0 0-3.228-3.547 1 1 0 0 1-.796-1.17Z" clip-rule="evenodd"/>
</svg>
