<svg xmlns="http://www.w3.org/2000/svg" width="32" height="32" fill="none" viewBox="0 0 32 32">
  <path fill="#fff" fill-rule="evenodd" d="M16 5C9.925 5 5 9.925 5 16s4.925 11 11 11 11-4.925 11-11S22.075 5 16 5ZM3 16C3 8.82 8.82 3 16 3s13 5.82 13 13-5.82 13-13 13S3 23.18 3 16Z" clip-rule="evenodd"/>
  <path fill="#fff" fill-rule="evenodd" d="M3.688 12a1 1 0 0 1 1-1h22.625a1 1 0 1 1 0 2H4.688a1 1 0 0 1-1-1Zm0 8a1 1 0 0 1 1-1h22.625a1 1 0 1 1 0 2H4.688a1 1 0 0 1-1-1Z" clip-rule="evenodd"/>
  <path fill="#fff" fill-rule="evenodd" d="M13.384 8.138C12.544 10.1 12 12.878 12 16s.544 5.9 1.384 7.862c.42.982.896 1.713 1.373 2.184.472.467.891.63 1.243.63.352 0 .771-.163 1.244-.63.476-.47.952-1.202 1.372-2.184C19.456 21.901 20 19.122 20 16s-.544-5.9-1.384-7.862c-.42-.982-.896-1.713-1.372-2.184-.473-.466-.892-.629-1.244-.629s-.771.162-1.243.63c-.477.47-.953 1.201-1.373 2.183Zm-.033-3.607c.724-.715 1.62-1.206 2.649-1.206s1.925.491 2.649 1.206c.72.71 1.322 1.69 1.806 2.82.97 2.265 1.545 5.323 1.545 8.65 0 3.325-.575 6.384-1.545 8.648-.484 1.13-1.086 2.11-1.806 2.82-.724.715-1.62 1.206-2.649 1.206s-1.925-.49-2.649-1.206c-.72-.71-1.322-1.69-1.806-2.82C10.575 22.385 10 19.326 10 16c0-3.326.575-6.384 1.545-8.649.484-1.13 1.087-2.11 1.806-2.82Z" clip-rule="evenodd"/>
</svg>
