<svg xmlns="http://www.w3.org/2000/svg" width="32" height="32" fill="none" viewBox="0 0 32 32">
  <path fill="#fff" fill-rule="evenodd" d="M16 16a1.5 1.5 0 1 0 0 3 1.5 1.5 0 0 0 0-3Zm-3.5 1.5a3.5 3.5 0 1 1 7 0 3.5 3.5 0 0 1-7 0Z" clip-rule="evenodd"/>
  <path fill="#fff" fill-rule="evenodd" d="M16 19a1 1 0 0 1 1 1v3a1 1 0 1 1-2 0v-3a1 1 0 0 1 1-1Z" clip-rule="evenodd"/>
  <path fill="#fff" fill-rule="evenodd" d="M4 12a2 2 0 0 1 2-2h20a2 2 0 0 1 2 2v14a2 2 0 0 1-2 2H6a2 2 0 0 1-2-2V12Zm22 0H6v14h20V12Z" clip-rule="evenodd"/>
  <path fill="#fff" fill-rule="evenodd" d="M16 3a3.5 3.5 0 0 0-3.5 3.5V11a1 1 0 1 1-2 0V6.5a5.5 5.5 0 0 1 11 0V11a1 1 0 1 1-2 0V6.5A3.5 3.5 0 0 0 16 3Z" clip-rule="evenodd"/>
</svg>
