<svg xmlns="http://www.w3.org/2000/svg" width="32" height="32" fill="none" viewBox="0 0 32 32">
  <path fill="#fff" fill-rule="evenodd" d="M13 28a1 1 0 0 1 1-1h4a1 1 0 1 1 0 2h-4a1 1 0 0 1-1-1Zm1.743-26.3a1.975 1.975 0 0 1 2.517.002c1.242 1.012 3.93 3.519 5.417 7.384 1.509 3.921 1.739 9.137-1.807 15.406A1 1 0 0 1 20 25h-8a1 1 0 0 1-.866-.5c-3.618-6.271-3.396-11.494-1.87-15.422 1.5-3.866 4.223-6.372 5.48-7.379ZM16 3.254c-1.122.898-3.549 3.14-4.873 6.547C9.863 13.058 9.563 17.48 12.585 23h6.824c2.958-5.519 2.655-9.939 1.401-13.196-1.308-3.402-3.697-5.642-4.81-6.549Z" clip-rule="evenodd"/>
  <path fill="#fff" fill-rule="evenodd" d="M9.878 13.157a1 1 0 0 1 .127 1.409l-3.917 4.69v.003l1.538 6.96 3.75-3a1 1 0 0 1 1.249 1.562l-3.75 3a2.002 2.002 0 0 1-2.744-.234 2 2 0 0 1-.457-.89v-.004l-1.535-6.95a1.95 1.95 0 0 1 .41-1.723l3.92-4.696a1 1 0 0 1 1.41-.127Zm12.169-.1a1 1 0 0 1 1.409.128l3.996 4.796a1.95 1.95 0 0 1 .41 1.721l-1.535 6.951-.001.004a2 2 0 0 1-3.2 1.125l-3.75-3a1 1 0 0 1 1.249-1.563l3.75 3 1.536-6.96v-.003l-3.992-4.79a1 1 0 0 1 .128-1.409Z" clip-rule="evenodd"/>
  <path fill="#fff" d="M16 13.5a1.5 1.5 0 1 0 0-3 1.5 1.5 0 0 0 0 3Z"/>
</svg>
