<svg xmlns="http://www.w3.org/2000/svg" width="32" height="32" fill="none" viewBox="0 0 32 32">
  <path fill="#fff" fill-rule="evenodd" d="M6 12.45a1 1 0 0 1 1 1V26h18V13.45a1 1 0 1 1 2 0V26a2 2 0 0 1-2 2H7a2 2 0 0 1-2-2V13.45a1 1 0 0 1 1-1ZM3 5a1 1 0 0 1 1-1h24a1 1 0 1 1 0 2H4a1 1 0 0 1-1-1Z" clip-rule="evenodd"/>
  <path fill="#fff" fill-rule="evenodd" d="M4 7a1 1 0 0 1 1 1v2a3 3 0 0 0 6 0V8a1 1 0 1 1 2 0v2a5 5 0 1 1-10 0V8a1 1 0 0 1 1-1Z" clip-rule="evenodd"/>
  <path fill="#fff" fill-rule="evenodd" d="M12 7a1 1 0 0 1 1 1v2a3 3 0 0 0 6 0V8a1 1 0 1 1 2 0v2a5 5 0 1 1-10 0V8a1 1 0 0 1 1-1Z" clip-rule="evenodd"/>
  <path fill="#fff" fill-rule="evenodd" d="M20 7a1 1 0 0 1 1 1v2a3 3 0 0 0 6 0V8a1 1 0 1 1 2 0v2a5 5 0 1 1-10 0V8a1 1 0 0 1 1-1Z" clip-rule="evenodd"/>
</svg>
