<svg xmlns="http://www.w3.org/2000/svg" width="32" height="32" fill="none" viewBox="0 0 32 32">
  <path fill="#fff" fill-rule="evenodd" d="M13.528 11.118a1 1 0 0 1 1.027.05l6 4a1 1 0 0 1 0 1.664l-6 4A1 1 0 0 1 13 20v-8a1 1 0 0 1 .528-.882ZM15 13.868v4.263L18.197 16 15 13.868Z" clip-rule="evenodd"/>
  <path fill="#fff" fill-rule="evenodd" d="M15.998 5.05h-.079l-.236.001a54.216 54.216 0 0 0-3.76.183c-2.276.193-5.174.592-7.405 1.444l-.015.006a3.012 3.012 0 0 0-1.796 2.04v.003C2.394 9.946 2 12.206 2 16c0 3.794.395 6.054.706 7.273l.001.003a3.012 3.012 0 0 0 1.796 2.04l.015.006c2.231.852 5.13 1.25 7.406 1.443a54.288 54.288 0 0 0 3.995.185h.162c.055 0 .134 0 .236-.002a54.288 54.288 0 0 0 3.76-.183c2.276-.192 5.174-.591 7.405-1.444l.015-.005a3.012 3.012 0 0 0 1.796-2.04v-.003c.312-1.22.707-3.479.707-7.273 0-3.794-.395-6.054-.706-7.273l-.001-.004a3.013 3.013 0 0 0-1.796-2.039l-.015-.006c-2.231-.852-5.13-1.251-7.406-1.443a54.216 54.216 0 0 0-3.995-.185h-.083Zm-.003 19.9h.082c.049 0 .123 0 .219-.002a52.298 52.298 0 0 0 3.612-.176c2.236-.189 4.896-.57 6.852-1.316a1.012 1.012 0 0 0 .597-.68C27.62 21.742 28 19.652 28 16c0-3.653-.38-5.743-.643-6.775a1.013 1.013 0 0 0-.597-.682c-1.956-.745-4.616-1.127-6.852-1.315a52.216 52.216 0 0 0-3.831-.178h-.154l-.219.001a52.216 52.216 0 0 0-3.612.176c-2.236.19-4.896.57-6.852 1.316a1.012 1.012 0 0 0-.597.682C4.38 10.257 4 12.347 4 16c0 3.653.38 5.743.643 6.775a1.013 1.013 0 0 0 .597.681c1.956.746 4.616 1.127 6.852 1.316a52.298 52.298 0 0 0 3.831.178h.072Z" clip-rule="evenodd"/>
</svg>
