<svg xmlns="http://www.w3.org/2000/svg" width="100" height="100" fill="none" viewBox="0 0 100 100">
  <path stroke="#fff" stroke-linecap="round" stroke-linejoin="round" stroke-width="3" d="M70.313 78.125c6.04 0 10.937-4.897 10.937-10.938 0-6.04-4.897-10.937-10.938-10.937-6.04 0-10.937 4.897-10.937 10.938 0 6.04 4.897 10.937 10.938 10.937Zm-50 12.5c6.04 0 10.937-4.897 10.937-10.938 0-6.04-4.897-10.937-10.938-10.937-6.04 0-10.937 4.897-10.937 10.938 0 6.04 4.897 10.937 10.938 10.937ZM81.25 31.25l-50 12.5"/>
  <path stroke="#fff" stroke-linecap="round" stroke-linejoin="round" stroke-width="3" d="M31.25 79.688V25l50-12.5v54.688"/>
</svg>
